<?xml version="1.0" standalone="no"?>
<!DOCTYPE svg PUBLIC "-//W3C//DTD SVG 20010904//EN"
 "http://www.w3.org/TR/2001/REC-SVG-20010904/DTD/svg10.dtd">
<svg version="1.0" xmlns="http://www.w3.org/2000/svg"
 width="500.000000pt" height="500.000000pt" viewBox="0 0 500.000000 500.000000"
 preserveAspectRatio="xMidYMid meet">
<metadata>
Created by potrace 1.14, written by Peter Selinger 2001-2017
</metadata>
<g transform="translate(0.000000,500.000000) scale(0.100000,-0.100000)"
fill="#000000" stroke="none">
<path d="M201 4360 c-8 -4 -15 -1150 -7 -1150 1 0 31 14 66 31 87 42 197 85
304 120 92 30 292 85 336 92 14 3 54 12 90 20 73 18 319 67 365 73 31 4 96 14
130 20 10 2 37 6 60 9 22 3 67 10 100 15 33 5 78 11 100 14 22 3 78 11 125 17
47 7 102 13 122 13 21 1 38 3 38 6 0 3 15 5 33 6 17 0 57 4 87 7 30 4 82 9
115 12 33 3 76 8 95 11 19 2 64 7 100 9 61 5 100 8 245 20 33 3 83 7 112 9 28
2 56 7 62 10 6 4 11 2 11 -4 0 -6 4 -9 9 -6 17 11 297 30 896 61 33 2 132 6
220 10 88 3 207 8 265 11 58 2 131 4 163 4 31 0 57 2 57 4 0 2 -46 18 -102 36
-57 17 -128 40 -158 50 -30 10 -129 42 -220 70 -91 28 -248 78 -350 110 -102
32 -207 65 -234 73 -28 7 -52 19 -54 25 -2 7 2 10 10 7 7 -2 28 -7 46 -10 57
-9 96 -16 120 -21 12 -2 34 -6 50 -9 34 -6 93 -17 109 -21 6 -1 29 -5 50 -8
21 -3 65 -10 98 -16 33 -6 85 -15 115 -20 30 -6 66 -12 80 -15 14 -3 39 -7 55
-10 17 -2 44 -7 60 -10 79 -15 194 -34 230 -40 22 -3 47 -7 55 -10 27 -7 94
-16 89 -11 -2 2 -89 91 -194 198 l-190 193 -1978 0 c-1087 1 -1982 -2 -1986
-5z m3149 -182 c0 -11 -28 -10 -35 1 -3 6 4 9 15 8 11 -1 20 -5 20 -9z"/>
<path d="M4310 4361 c0 -4 33 -31 73 -61 39 -30 74 -57 77 -60 3 -3 23 -19 45
-36 22 -17 70 -54 108 -83 l67 -53 -4 103 c-3 57 -5 124 -5 150 l-1 45 -180 0
c-99 0 -180 -2 -180 -5z"/>
<path d="M4766 4362 c-3 -2 2 -25 9 -50 8 -26 17 -62 20 -81 3 -19 11 -43 17
-55 6 -11 11 -22 10 -23 -4 -8 12 -63 18 -63 4 0 11 16 15 36 3 20 10 44 15
53 11 21 60 167 60 178 0 9 -156 14 -164 5z"/>
<path d="M4422 3719 c-4 -4 -43 -9 -87 -13 -44 -3 -96 -8 -115 -11 -19 -2 -55
-7 -80 -9 -109 -12 -165 -18 -179 -21 -9 -2 -45 -6 -81 -10 -36 -4 -76 -9 -90
-11 -14 -1 -45 -5 -70 -8 -25 -3 -56 -8 -70 -11 -14 -3 -52 -8 -85 -11 -33 -3
-63 -8 -66 -10 -3 -1 -32 -6 -65 -9 -32 -3 -66 -8 -74 -10 -8 -2 -35 -7 -60
-10 -58 -8 -92 -13 -160 -25 -30 -6 -68 -12 -85 -15 -16 -3 -41 -8 -55 -10
-14 -3 -38 -8 -55 -11 -244 -44 -612 -140 -720 -189 -46 -21 -89 -38 -97 -39
-24 -3 -158 -104 -181 -136 -131 -184 185 -397 898 -604 175 -51 332 -95 360
-100 11 -2 49 -12 85 -21 69 -18 90 -23 130 -31 14 -3 41 -9 60 -14 37 -10 85
-20 110 -24 8 -1 24 -5 35 -9 11 -3 37 -8 59 -12 21 -3 42 -7 46 -10 4 -3 25
-7 46 -10 22 -3 45 -8 53 -11 8 -2 28 -7 45 -10 17 -2 108 -20 201 -40 94 -19
177 -35 185 -36 8 0 38 -5 65 -10 28 -5 61 -12 75 -14 14 -2 138 -24 277 -47
220 -38 252 -41 255 -28 6 27 3 1310 -4 1316 -4 5 -17 -58 -23 -120 -1 -5 -4
-19 -8 -30 -3 -11 -9 -36 -11 -55 -3 -19 -8 -48 -12 -65 -4 -16 -8 -39 -9 -50
-2 -11 -4 -20 -5 -20 -2 0 -5 -13 -13 -60 -7 -35 -12 -63 -34 -165 -19 -96
-23 -115 -33 -170 -10 -58 -11 -42 -14 176 -2 99 -6 186 -10 192 -4 7 -2 12 4
12 7 0 8 7 3 18 -5 9 -8 101 -8 204 0 141 -3 184 -11 175 -10 -10 -195 -278
-237 -341 -6 -10 -23 -32 -35 -47 -13 -16 -21 -29 -17 -29 3 0 -4 -10 -15 -22
-12 -13 -28 -35 -36 -50 -8 -16 -16 -28 -18 -28 -4 0 46 153 61 190 3 8 7 17
8 20 0 3 9 30 20 60 10 30 20 60 21 65 2 6 23 70 49 144 25 73 45 135 43 136
-2 1 -124 -49 -273 -112 -148 -62 -277 -116 -285 -119 -17 -7 -36 -15 -105
-44 -27 -12 -54 -23 -60 -24 -12 -3 -34 -12 -152 -64 -51 -22 -93 -37 -93 -33
0 3 46 33 102 66 55 33 117 70 137 82 20 13 47 28 61 35 14 7 30 17 35 21 6 4
111 68 235 142 124 74 230 139 237 145 7 5 28 17 47 27 20 9 36 20 36 23 0 9
-78 7 -88 -1z"/>
<path d="M209 2563 c-1 -25 -1 -402 0 -433 l1 -26 1560 0 c858 0 1560 3 1560
7 0 3 -6 6 -12 6 -59 2 -238 15 -258 18 -14 2 -65 6 -115 10 -49 3 -106 8
-125 10 -19 2 -66 7 -105 10 -38 3 -92 7 -120 10 -27 2 -79 7 -115 10 -36 3
-81 8 -100 10 -19 2 -64 7 -100 10 -36 4 -81 8 -100 10 -19 2 -64 6 -100 10
-36 3 -81 8 -100 10 -87 12 -128 16 -170 20 -25 2 -65 7 -90 10 -25 4 -58 8
-75 10 -77 8 -152 18 -170 21 -11 3 -38 7 -60 9 -22 3 -58 8 -80 11 -22 4 -50
8 -63 9 -26 4 -157 25 -189 31 -69 13 -145 26 -168 30 -180 27 -599 140 -687
186 -14 7 -18 5 -19 -9z"/>
<path d="M3353 2103 c9 -2 23 -2 30 0 6 3 -1 5 -18 5 -16 0 -22 -2 -12 -5z"/>
<path d="M756 1921 c-4 -5 -14 -9 -24 -9 -9 1 -35 -2 -57 -7 -22 -4 -47 -9
-55 -10 -76 -11 -201 -78 -262 -140 -59 -60 -61 -63 -85 -122 -16 -39 -21 -69
-19 -116 6 -110 50 -172 226 -316 125 -102 122 -99 144 -132 43 -67 16 -127
-72 -154 -51 -17 -177 -22 -232 -11 -14 3 -38 8 -55 11 -38 8 -59 13 -62 15
-2 2 -6 3 -10 4 -27 6 -90 30 -100 39 -7 5 -13 6 -14 1 0 -5 -2 -16 -3 -24 -2
-8 -7 -55 -10 -105 -4 -49 -9 -109 -12 -131 -6 -48 -4 -50 83 -60 32 -3 81
-10 108 -15 56 -9 364 -5 410 5 70 16 143 40 188 62 196 94 296 290 223 437
-34 69 -77 113 -210 213 -62 46 -121 96 -133 113 -75 100 -8 172 173 185 77 6
270 -30 301 -56 19 -15 23 7 39 225 3 50 1 67 -8 68 -7 0 -22 2 -33 5 -43 8
-110 16 -164 19 -31 2 -56 4 -56 5 0 5 -176 2 -182 -3 -3 -4 -12 -2 -19 4 -8
6 -14 7 -18 0z"/>
<path d="M3595 1922 l-50 -3 -29 -122 c-16 -67 -31 -126 -32 -132 -1 -5 -21
-84 -44 -175 -23 -91 -43 -173 -45 -183 -3 -10 -7 -27 -10 -37 -3 -10 -8 -29
-10 -42 -3 -13 -14 -61 -26 -108 -50 -196 -13 -306 129 -383 191 -104 625
-110 904 -13 134 47 256 142 311 245 22 40 72 200 92 296 3 11 16 67 31 125
26 104 30 124 38 158 2 9 9 37 16 62 7 25 13 52 15 60 2 8 10 42 19 75 9 33
19 71 21 85 2 14 9 41 15 60 5 19 10 36 10 38 0 2 -100 2 -222 0 l-222 -3 -13
-45 c-7 -25 -16 -58 -19 -75 -2 -16 -7 -38 -10 -47 -3 -9 -7 -25 -9 -35 -3
-10 -12 -45 -20 -78 -9 -33 -18 -73 -21 -90 -4 -16 -10 -37 -15 -46 -4 -9 -6
-19 -3 -22 3 -3 2 -12 -2 -19 -5 -7 -10 -21 -11 -32 -5 -28 -52 -216 -64 -256
-55 -174 -152 -250 -319 -250 -162 0 -221 68 -196 229 4 23 11 54 16 67 5 13
8 24 5 24 -2 0 5 30 15 66 11 37 19 69 18 73 -1 3 2 13 5 21 6 15 43 165 51
205 1 6 5 16 9 23 5 6 6 12 3 12 -2 0 0 15 5 33 6 17 12 41 14 53 3 11 14 56
25 100 11 43 20 81 20 84 0 5 -312 7 -395 2z"/>
<path d="M1643 1912 c-62 -1 -113 -4 -113 -6 0 -6 -40 -171 -50 -206 -15 -50
-200 -800 -206 -830 -2 -14 -15 -64 -28 -113 -13 -48 -20 -89 -17 -92 4 -2
180 -2 392 0 211 2 447 4 524 5 l141 0 29 118 c15 64 30 124 32 133 4 15 -28
16 -339 14 -189 -1 -346 0 -350 2 -4 2 -3 15 2 29 6 14 12 40 15 57 3 18 11
55 19 82 l13 50 49 2 c27 1 158 3 292 4 134 1 246 7 249 12 6 9 63 235 63 250
0 4 -123 8 -272 7 -150 -1 -282 -1 -294 -1 l-21 1 18 68 c10 37 22 85 28 107
l10 40 348 3 c191 2 349 5 351 7 4 4 47 169 58 224 3 14 7 27 9 31 4 6 -724 8
-952 2z"/>
<path d="M2809 1882 c-5 -13 -9 -29 -9 -35 0 -6 -61 -257 -136 -557 -75 -300
-138 -556 -140 -570 -3 -14 -7 -33 -10 -42 -3 -11 0 -18 8 -19 50 -5 424 3
429 9 5 6 25 81 34 125 2 10 7 27 10 37 3 10 8 28 10 41 7 35 145 599 161 654
13 47 94 374 94 380 0 2 -100 2 -221 2 l-221 -2 -9 -23z"/>
</g>
</svg>
